<svg
  version="1.0"
  xmlns="http://www.w3.org/2000/svg"
  width="900.000000pt"
  height="900.000000pt"
  viewBox="0 0 900.000000 900.000000"
  preserveAspectRatio="xMidYMid meet"
>

<g
    transform="translate(0.000000,900.000000) scale(0.100000,-0.100000)"
    fill="#000000"
    stroke="none"
  >
<path
      d="M4019 6626 c-2 -2 -161 -6 -354 -10 -767 -14 -1353 -61 -1553 -125
-108 -35 -203 -91 -285 -170 -215 -205 -276 -455 -322 -1321 -35 -668 1 -1426
91 -1879 53 -265 193 -459 413 -570 194 -99 667 -145 1766 -171 1154 -28 2486
13 2956 91 179 29 264 61 379 139 109 75 218 214 268 340 48 122 97 418 122
740 69 895 11 2023 -122 2360 -80 204 -262 374 -470 441 -208 66 -742 108
-1663 129 -407 10 -1217 14 -1226 6z m-55 -1261 c30 -19 57 -35 60 -35 2 0 82
-45 176 -100 95 -55 174 -100 176 -100 2 0 25 -13 52 -29 26 -15 68 -39 93
-53 55 -31 86 -49 224 -128 61 -34 130 -74 155 -88 25 -14 88 -50 140 -80 52
-30 111 -64 130 -74 43 -25 135 -77 175 -100 17 -10 51 -29 78 -43 26 -14 47
-30 47 -35 0 -5 -21 -21 -47 -35 -27 -14 -61 -33 -78 -43 -36 -21 -127 -73
-175 -100 -31 -17 -208 -118 -285 -162 -119 -68 -304 -174 -364 -208 -25 -14
-67 -38 -93 -53 -27 -16 -51 -29 -54 -29 -3 0 -30 -16 -60 -35 -30 -19 -56
-35 -58 -35 -2 0 -48 -25 -102 -56 -55 -31 -115 -65 -134 -76 -19 -11 -53 -31
-76 -44 -22 -13 -44 -21 -47 -17 -9 8 -9 1778 0 1786 9 10 7 11 67 -28z"
    />
</g>
</svg>
